<?xml version="1.0" encoding="UTF-8" standalone="no"?>
<!-- Created with Inkscape (http://www.inkscape.org/) -->
<svg
   xmlns:svg="http://www.w3.org/2000/svg"
   xmlns="http://www.w3.org/2000/svg"
   version="1.0"
   width="800"
   height="170.44099"
   viewBox="0 0 800 170.441"
   id="Layer_1"
   xml:space="preserve"><defs
   id="defs22" />
<g
   id="g3">
	<path
   d="M 115.655,126.815 C 115.655,152.38 137.771,170.441 169.221,170.441 C 200.874,170.441 222.992,152.38 222.992,126.815 C 222.992,101.046 200.874,82.987 169.221,82.987 C 137.771,82.987 115.655,101.046 115.655,126.815 L 115.655,126.815 z M 137.771,126.815 C 137.771,111.598 150.353,101.251 169.222,101.251 C 188.295,101.251 200.875,111.599 200.875,126.815 C 200.875,141.828 188.295,152.179 169.222,152.179 C 150.353,152.179 137.771,141.828 137.771,126.815 L 137.771,126.815 z "
   style="fill:#074b88;fill-rule:evenodd"
   id="path5" />
	<path
   d="M 253.428,91.713 C 253.428,89.888 253.428,85.219 253.428,85.219 L 232.122,85.219 L 232.122,168.206 L 253.63,168.206 L 253.63,123.976 C 253.63,116.467 254.443,108.754 264.588,105.105 C 268.035,103.885 271.487,103.28 275.544,103.28 L 278.588,103.28 L 278.588,82.987 C 278.588,82.987 264.993,82.987 253.428,91.713 L 253.428,91.713 z "
   style="fill:#074b88;fill-rule:evenodd"
   id="path7" />
	<path
   d="M 365.836,54.784 C 365.836,54.784 365.836,88.061 365.836,91.714 C 357.315,86.032 345.748,82.988 333.373,82.988 C 301.718,82.988 279.602,100.842 279.602,126.612 C 279.602,152.382 301.717,170.237 333.373,170.237 C 345.748,170.237 356.908,167.398 365.836,162.324 C 365.836,164.153 365.836,168.208 365.836,168.208 L 386.939,168.208 L 386.939,126.412 L 386.939,126.207 L 386.939,54.784 L 365.836,54.784 L 365.836,54.784 z M 301.718,126.815 C 301.718,111.598 314.503,101.251 333.373,101.251 C 352.242,101.251 365.026,111.599 365.026,126.815 C 365.026,141.828 352.241,152.179 333.373,152.179 C 314.502,152.179 301.718,141.828 301.718,126.815 L 301.718,126.815 z "
   style="fill:#074b88;fill-rule:evenodd"
   id="path9" />
	<path
   d="M 511.32,126.611 C 511.32,152.79 532.825,170.441 564.683,170.441 C 577.67,170.441 589.438,168.006 597.351,162.528 C 597.351,164.557 597.555,168.207 597.555,168.207 L 618.656,168.207 L 618.656,127.22 C 618.656,100.641 597.146,82.987 565.089,82.987 C 533.436,82.987 511.32,101.046 511.32,126.611 L 511.32,126.611 z M 533.436,126.611 C 533.436,111.598 546.218,101.251 565.089,101.251 C 583.959,101.251 596.741,111.599 596.741,126.611 C 596.741,141.828 583.959,151.975 565.089,151.975 C 546.218,151.975 533.436,141.828 533.436,126.611 L 533.436,126.611 z "
   style="fill:#074b88;fill-rule:evenodd"
   id="path11" />
	<path
   d="M 503.607,134.933 C 500.971,148.321 491.839,157.659 481.696,163.137 C 472.563,168.206 462.42,170.441 450.448,170.441 C 417.575,170.236 396.882,150.351 396.882,127.22 C 396.882,101.046 419.606,82.784 450.448,82.987 C 491.229,83.19 503.607,108.754 504.622,124.581 C 504.622,124.581 425.893,141.627 424.679,141.827 C 430.359,148.32 439.086,151.974 450.449,151.974 C 463.841,152.178 473.579,146.901 478.248,140.407 L 503.607,134.933 L 503.607,134.933 z M 419.404,124.582 C 422.04,123.977 474.592,112.613 477.432,112.004 C 472.768,105.916 463.435,101.251 450.448,101.047 C 432.388,101.656 420.215,111.189 419.404,124.582 L 419.404,124.582 z "
   style="fill:#074b88;fill-rule:evenodd"
   id="path13" />
	<path
   d="M 86.234,168.207 L 106.727,168.412 L 106.727,66.146 L 85.422,66.146 L 85.422,135.948 L 20.898,65.944 L 0,65.944 C 0,69.393 0,168.412 0,168.412 L 21.101,168.412 L 21.101,100.032 L 86.234,168.207 L 86.234,168.207 z "
   style="fill:#074b88;fill-rule:evenodd"
   id="path15" />
	<path
   d="M 658.829,57.625 C 667.151,87.858 662.888,114.843 651.12,130.06 C 708.338,111.598 772.863,49.914 760.891,16.841 C 753.993,-2.232 704.483,-4.667 634.683,11.361 C 645.031,22.32 653.555,38.552 658.829,57.625 L 658.829,57.625 z "
   style="fill:#074b88;fill-rule:evenodd"
   id="path17" />
	<path
   d="M 767.185,44.843 C 774.08,30.639 775.503,18.057 771.849,7.304 C 770.834,4.464 769.414,2.23 767.79,0 C 787.065,2.637 804.312,31.449 799.038,63.914 C 794.778,88.873 785.241,110.785 774.688,123.771 C 761.295,117.078 733.092,115.453 701.239,120.522 C 694.135,121.742 688.456,122.961 681.963,124.582 C 718.08,105.51 753.183,73.452 767.185,44.843 L 767.185,44.843 z "
   style="fill:#074b88;fill-rule:evenodd"
   id="path19" />
</g>
</svg>